Coordinates
version=1
nRows=12
nColumns=24
inDegrees=yes

Units are S.I. units (second, meters, Newtons, ...)
Angles are in degrees.

endheader
time	pelvis_tilt	pelvis_list	pelvis_rotation	pelvis_tx	pelvis_ty	pelvis_tz	hip_flexion_r	hip_adduction_r	hip_rotation_r	knee_angle_r	ankle_angle_r	subtalar_angle_r	mtp_angle_r	hip_flexion_l	hip_adduction_l	hip_rotation_l	knee_angle_l	ankle_angle_l	subtalar_angle_l	mtp_angle_l	lumbar_extension	lumbar_bending	lumbar_rotation
      4.46000000	     -9.85576704	      8.50286329	      1.54400139	     -0.28332121	     -0.02376945	      0.56912173	     25.62922163	    -14.67551309	     -3.74291998	    -65.34101248	     -3.59698313	      0.08787233	     14.86641774	     19.75042389	     12.11856479	     -3.12139052	    -18.92353540	      3.29526821	     10.84789818	      5.19967740	      5.72611763	    -10.50831499	     -1.66042470
      4.46500000	     -9.86181727	      8.17976646	      1.84306304	     -0.27687476	     -0.02251963	      0.56851925	     26.31704278	    -14.43034172	     -4.12733513	    -64.75085606	     -3.40864527	      0.45350384	     15.09189726	     18.94005243	     11.99047909	     -2.30473729	    -18.34370988	      3.43799331	     10.50340564	      4.80088080	      5.68582483	    -10.17482794	     -2.13975009
      4.47000000	     -9.86687122	      7.85802874	      2.14461812	     -0.27046382	     -0.02135629	      0.56794505	     26.98814865	    -14.17911363	     -4.50422987	    -64.09416813	     -3.25238958	      0.77137548	     15.26033388	     18.14175651	     11.84607990	     -1.50511182	    -17.77854719	      3.58677903	     10.16725395	      4.42320806	      5.63922597	     -9.84626394	     -2.64641777
      4.47500000	     -9.86233305	      7.54694081	      2.44716864	     -0.26400208	     -0.02024153	      0.56737472	     27.61758820	    -13.94416136	     -4.90084382	    -63.35554005	     -3.11182800	      1.00428073	     15.37979789	     17.32463809	     11.70050542	     -0.69767181	    -17.19922644	      3.71881544	      9.80422086	      3.99777372	      5.59699084	     -9.52874987	     -3.09779138
      4.48000000	     -9.85674563	      7.24292567	      2.74502207	     -0.25757268	     -0.01921696	      0.56683694	     28.23237569	    -13.70820637	     -5.28297715	    -62.55538436	     -2.99768777	      1.17204179	     15.43471816	     16.51896828	     11.54307203	      0.08817599	    -16.63300033	      3.86181171	      9.45569184	      3.57013520	      5.55025427	     -9.21986450	     -3.56652563
      4.48500000	     -9.84999636	      6.94612176	      3.03361510	     -0.25117556	     -0.01828098	      0.56634502	     28.83344786	    -13.46888445	     -5.64549692	    -61.69522861	     -2.91162082	      1.26638357	     15.41488039	     15.72489181	     11.37225941	      0.84587930	    -16.07916620	      4.01243968	      9.11648979	      3.15269558	      5.49944337	     -8.92160289	     -4.05022613
      4.49000000	     -9.84138376	      6.66062663	      3.31944106	     -0.24475925	     -0.01741837	      0.56586076	     29.40879961	    -13.24435978	     -6.01317406	    -60.76873804	     -2.83286339	      1.28667128	     15.31865545	     14.93016198	     11.19807075	      1.58559238	    -15.52353668	      4.15603549	      8.78041555	      2.72138732	      5.45488036	     -8.63341204	     -4.50247371
      4.49500000	     -9.82921592	      6.39295159	      3.60038408	     -0.23834784	     -0.01664736	      0.56539377	     29.96255921	    -13.03976950	     -6.37778861	    -59.78666631	     -2.75905339	      1.23998709	     15.13868947	     14.13610753	     11.02629747	      2.31435597	    -14.97154738	      4.30823207	      8.45402150	      2.27291129	      5.40864580	     -8.36101730	     -4.93563616
      4.50000000	     -9.82212140	      6.13366606	      3.87266609	     -0.23194663	     -0.01595790	      0.56497591	     30.50160993	    -12.83772419	     -6.73235215	    -58.74121468	     -2.69879850	      1.13004638	     14.87054621	     13.35774654	     10.84321945	      2.99628420	    -14.42713894	      4.45726973	      8.15134024	      1.83288702	      5.36930388	     -8.10770512	     -5.36572235
      4.50500000	     -9.81426928	      5.89051478	      4.13434806	     -0.22556379	     -0.01536362	      0.56457900	     31.02432448	    -12.65116923	     -7.07792247	    -57.64407145	     -2.64108536	      0.96581002	     14.51340283	     12.58580953	     10.66007067	      3.64717762	    -13.88694553	      4.60957005	      7.86823958	      1.40119235	      5.32851972	     -7.86541440	     -5.77927761
      4.51000000	     -9.80856368	      5.66187512	      4.38620094	     -0.21918243	     -0.01485809	      0.56421333	     31.52823107	    -12.47499263	     -7.40979852	    -56.48827553	     -2.59229492	      0.74862705	     14.06908329	     11.82468563	     10.47518434	      4.25758925	    -13.35468585	      4.76624941	      7.61327528	      0.99123486	      5.29478922	     -7.64003878	     -6.18444650
      4.51500000	     -9.80201530	      5.44786703	      4.62710548	     -0.21280740	     -0.01444348	      0.56386190	     32.01159632	    -12.31324441	     -7.73472735	    -55.28016080	     -2.54079659	      0.49534759	     13.53218035	     11.06687212	     10.29128415	      4.83445912	    -12.82216506	      4.92542708	      7.37826389	      0.59177550	      5.26010093	     -7.42645520	     -6.57364922
